<?xml version="1.0" standalone="no"?>
<!DOCTYPE svg PUBLIC "-//W3C//DTD SVG 20010904//EN"
 "http://www.w3.org/TR/2001/REC-SVG-20010904/DTD/svg10.dtd">
<svg version="1.0" xmlns="http://www.w3.org/2000/svg"
 width="300.000000pt" height="300.000000pt" viewBox="0 0 300.000000 300.000000"
 preserveAspectRatio="xMidYMid meet">
<metadata>
Created by potrace 1.10, written by Peter Selinger 2001-2011
</metadata>
<g transform="translate(0.000000,300.000000) scale(0.100000,-0.100000)"
fill="#000000" stroke="none">
<path d="M1345 2574 c-271 -26 -416 -67 -493 -138 -63 -57 -95 -185 -90 -364
l3 -124 -27 -19 c-24 -18 -25 -22 -15 -54 5 -19 28 -56 50 -82 l39 -48 -33 -7
c-19 -3 -55 -4 -81 -1 -57 7 -61 3 -169 -164 -47 -74 -85 -123 -94 -123 -9 0
-31 -16 -48 -35 -17 -19 -34 -35 -37 -35 -4 0 -7 14 -8 30 -3 109 -87 175
-153 121 l-24 -19 29 -57 c36 -71 31 -108 -29 -255 -27 -67 -47 -137 -55 -192
-13 -85 -13 -87 13 -130 48 -81 104 -115 225 -133 56 -9 119 21 227 110 44 36
86 65 93 65 16 0 90 50 115 78 10 11 21 38 24 60 4 32 1 44 -16 61 l-21 21 24
38 c18 27 23 46 19 70 -6 38 -57 86 -85 79 -23 -7 -23 -4 9 46 16 23 40 65 54
94 l26 52 32 -39 c26 -32 30 -43 21 -59 -14 -27 -13 -67 4 -100 19 -36 85 -95
137 -121 38 -20 41 -24 35 -54 -11 -58 31 -385 54 -428 6 -10 10 -26 10 -36 0
-10 4 -22 8 -28 5 -5 19 -36 31 -69 13 -33 28 -71 34 -85 5 -14 12 -32 13 -40
4 -20 81 -82 123 -99 59 -22 106 -25 124 -7 8 9 20 16 25 16 5 0 21 11 36 25
15 14 33 25 40 25 17 0 46 33 46 52 0 9 11 19 24 22 14 3 28 16 32 29 4 12 15
28 25 35 11 7 19 21 19 31 0 10 7 32 15 47 8 16 15 37 15 46 0 9 5 20 10 23 6
3 10 18 10 32 0 13 9 36 20 50 11 14 20 36 20 49 0 12 5 26 11 30 7 4 9 22 6
47 -6 45 5 124 29 205 9 29 14 66 10 83 -3 16 -1 29 4 29 19 0 103 85 116 117
20 46 17 96 -6 125 -19 25 -19 25 2 71 l21 45 44 -53 c24 -30 60 -66 80 -81
l36 -27 -37 -19 c-38 -19 -40 -22 -50 -70 -5 -22 1 -35 28 -66 30 -33 33 -39
19 -48 -12 -7 -16 -23 -15 -55 1 -35 8 -49 31 -70 35 -32 100 -46 129 -28 16
10 29 9 73 -10 83 -35 103 -50 89 -66 -9 -11 -9 -23 1 -52 20 -61 37 -80 84
-92 58 -15 92 -13 140 5 22 9 55 18 73 20 42 6 161 65 185 92 53 58 17 196
-67 263 -27 21 -55 39 -62 39 -8 0 -14 8 -14 17 0 9 -29 69 -64 133 -71 127
-81 162 -67 234 5 27 7 55 4 62 -9 24 -53 26 -88 4 -35 -22 -45 -43 -45 -105
0 -63 -11 -72 -53 -46 -19 11 -45 21 -58 21 -28 0 -112 81 -173 168 -52 72
-88 88 -138 61 -12 -7 -40 -12 -62 -13 l-41 -1 0 67 c1 37 4 71 9 75 17 17 34
71 29 96 -4 19 -13 28 -34 32 -28 6 -29 8 -29 73 0 80 -32 202 -66 254 -35 54
-137 125 -214 149 -64 20 -218 32 -305 23z m218 -25 c81 -13 157 -44 204 -83
37 -31 53 -90 53 -194 0 -37 6 -92 14 -121 l14 -53 -32 6 c-178 32 -488 35
-621 6 -104 -23 -233 -64 -289 -92 -21 -11 -36 -16 -34 -11 2 4 14 29 26 55
l23 48 -26 71 c-30 83 -31 110 -6 164 49 108 183 177 391 200 151 17 197 17
283 4z m-533 -44 c0 -2 -14 -12 -31 -20 -47 -25 -108 -84 -130 -126 -25 -50
-25 -131 1 -188 26 -57 26 -63 -11 -131 -28 -52 -54 -78 -66 -66 -2 2 -4 57
-4 122 -1 121 16 227 45 283 19 35 71 75 139 106 60 27 57 26 57 20z m830
-135 c36 -71 67 -280 42 -280 -36 0 -62 85 -62 204 0 34 -4 76 -9 94 -13 42 3
33 29 -18z m-105 -281 c33 -5 94 -16 135 -22 67 -11 75 -15 78 -36 3 -22 1
-23 -35 -17 -21 3 -117 9 -213 12 -262 10 -552 -19 -710 -71 -25 -8 -76 -24
-115 -36 -38 -12 -85 -30 -104 -41 -34 -19 -50 -14 -51 19 0 42 323 172 476
192 99 12 468 13 539 0z m74 -102 c36 -30 90 -199 71 -222 -8 -10 -3 -29 19
-74 36 -71 37 -82 11 -139 -17 -38 -22 -42 -39 -32 -42 22 -43 2 -2 -22 16 -9
37 -31 46 -48 14 -28 15 -39 5 -75 -14 -49 -40 -77 -124 -130 -149 -94 -275
-130 -434 -122 -123 5 -201 24 -309 73 -89 41 -143 81 -172 128 -28 45 -26 78
6 117 25 30 26 31 5 25 -18 -6 -26 0 -51 39 -29 46 -29 48 -14 81 11 22 20 30
27 25 8 -7 10 23 8 102 -2 63 1 127 7 148 10 34 16 38 79 57 37 11 115 30 173
42 l105 22 40 -21 c21 -12 46 -26 55 -33 13 -9 26 -3 71 30 65 48 90 52 278
45 75 -2 130 -9 139 -16z m-434 -12 c-36 -30 -40 -30 -71 -6 l-25 20 38 4 c21
2 49 4 63 5 l25 1 -30 -24z m534 -66 c13 -43 14 -79 2 -97 -5 -9 -10 -1 -13
25 -3 21 -15 59 -27 83 -27 56 -27 65 3 43 13 -10 29 -34 35 -54z m-1122 -76
c-9 -9 -19 -14 -23 -11 -10 10 6 28 24 28 15 0 15 -1 -1 -17z m53 -38 c0 -42
-4 -55 -15 -55 -24 0 -29 45 -9 79 10 17 20 31 21 31 2 0 3 -25 3 -55z m1315
-55 c27 -36 76 -91 109 -122 48 -47 65 -58 93 -58 28 0 37 -6 54 -35 23 -39
34 -46 24 -16 -6 19 -5 19 45 0 50 -19 72 -9 25 13 -23 10 -25 17 -25 73 0 72
25 115 66 115 24 0 24 -1 17 -75 -7 -83 8 -135 58 -210 41 -61 76 -135 84
-177 6 -34 5 -39 -18 -47 -14 -6 -33 -22 -44 -36 -10 -15 -33 -46 -50 -71 -18
-24 -33 -51 -33 -59 0 -9 -12 -20 -26 -25 -47 -18 -87 -11 -139 23 -79 52
-147 77 -207 76 -51 -2 -52 -2 -13 -8 25 -4 35 -9 28 -14 -19 -12 -93 14 -110
39 -8 13 -13 35 -11 51 2 23 13 33 57 55 41 21 50 29 37 34 -10 4 -28 2 -41
-4 -21 -10 -28 -7 -54 17 -22 20 -31 38 -31 60 0 26 6 33 38 47 28 12 44 13
66 5 21 -8 3 16 -75 97 -83 85 -112 123 -142 185 -20 42 -37 79 -37 82 0 12
65 36 85 31 13 -3 48 -40 84 -90 74 -103 153 -173 207 -184 34 -7 41 -13 56
-52 l17 -45 0 36 c1 45 -36 89 -74 89 -33 0 -127 87 -196 182 -44 60 -47 68
-31 78 32 19 57 5 107 -60z m-1455 -29 c0 -6 -15 -43 -34 -83 -45 -99 -116
-193 -164 -217 -46 -23 -52 -36 -51 -99 l0 -47 14 50 c8 28 14 53 15 57 0 3
16 12 35 18 45 15 111 103 172 227 41 85 47 93 79 99 19 3 41 3 50 0 26 -10
10 -77 -46 -193 -64 -135 -122 -219 -155 -227 -14 -4 -25 -11 -25 -16 0 -12
-6 -13 69 9 l63 20 24 -24 c30 -30 31 -67 2 -105 -37 -50 -48 -33 -23 35 4 14
-1 11 -19 -10 -37 -43 -34 -64 14 -82 36 -14 40 -20 40 -50 0 -48 -13 -67 -68
-103 l-47 -31 45 42 45 42 -40 -23 c-22 -13 -71 -51 -110 -85 -123 -109 -182
-145 -235 -145 -58 0 -139 24 -173 50 -14 11 -37 40 -52 65 l-26 45 14 83 c8
46 26 108 39 137 27 59 63 166 73 216 4 23 -2 45 -24 88 l-30 57 23 10 c55 26
104 -33 105 -127 1 -32 -5 -46 -29 -69 -44 -42 -28 -43 29 -2 27 20 51 31 53
25 2 -6 12 8 22 31 14 30 25 41 42 41 17 0 38 23 92 103 38 56 79 121 90 144
12 23 30 44 39 46 32 8 63 7 63 -2z m2058 -479 c3 -9 -2 -13 -14 -10 -9 1 -19
9 -22 16 -3 9 2 13 14 10 9 -1 19 -9 22 -16z m-954 -38 c4 -9 4 -19 1 -22 -7
-8 -35 19 -29 29 8 14 21 11 28 -7z m1016 1 c16 -19 0 -19 -26 0 -16 12 -16
14 -3 15 9 0 22 -7 29 -15z m-40 -42 c-20 -14 -20 -16 -4 -34 20 -23 34 -16
34 17 0 13 5 24 10 24 11 0 14 -73 3 -84 -7 -7 -14 -36 -8 -36 2 0 16 5 31 10
27 10 27 10 21 -27 -10 -60 -72 -98 -123 -75 -34 16 -21 38 31 51 54 13 58 14
50 1 -3 -5 -2 -10 4 -10 6 0 15 9 21 19 9 18 7 19 -25 14 -31 -5 -35 -3 -29
12 6 15 3 16 -17 9 -13 -5 -42 -9 -64 -9 -39 0 -40 1 -43 38 -4 41 15 79 47
96 16 9 18 8 14 -9 -3 -11 -12 -20 -19 -20 -8 0 -14 -7 -14 -15 0 -8 -5 -15
-10 -15 -7 0 -7 -6 0 -20 18 -33 41 -25 33 10 -4 22 -2 30 7 28 7 -2 14 5 15
15 7 42 14 48 36 37 l21 -12 -22 -15z m-1050 -60 c-6 -25 -13 -74 -15 -109 -2
-35 -9 -72 -15 -83 -5 -11 -10 -35 -10 -54 0 -19 -7 -40 -15 -47 -8 -7 -15
-22 -15 -33 0 -11 -13 -44 -30 -74 -16 -29 -30 -61 -30 -72 0 -10 -7 -24 -15
-31 -8 -7 -15 -17 -15 -22 0 -6 -13 -26 -30 -45 -16 -18 -30 -38 -30 -43 0 -6
-9 -10 -20 -10 -10 0 -42 -14 -71 -31 -28 -16 -57 -27 -63 -24 -71 38 -92 58
-108 105 -31 90 -70 196 -84 230 -20 50 -35 149 -38 266 -1 55 -6 106 -10 112
-9 15 -1 15 59 -3 87 -27 224 -38 306 -26 84 13 225 57 236 73 13 23 23 -34
13 -79z m58 31 c-3 -16 -7 -13 -21 13 -23 43 -21 52 4 26 12 -11 19 -29 17
-39z m-710 34 c7 -7 12 -19 12 -27 0 -11 -4 -10 -20 4 -21 19 -26 35 -12 35 4
0 13 -5 20 -12z m1586 -20 c-9 -18 -17 -49 -18 -70 0 -21 -4 -38 -8 -38 -3 0
-13 -3 -22 -6 -27 -10 -30 24 -5 55 13 15 32 43 41 60 23 41 33 40 12 -1z
m-1556 -56 c2 -7 -1 -12 -6 -12 -13 0 -62 40 -62 51 0 12 63 -24 68 -39z m667
-11 c5 -17 4 -22 -6 -19 -8 3 -15 18 -17 34 -4 33 11 24 23 -15z m-671 -38
c11 -27 -4 -33 -29 -11 -14 12 -25 30 -25 40 0 17 2 17 24 3 13 -9 27 -23 30
-32z m654 -41 l-4 -27 -13 27 c-8 15 -10 35 -7 45 7 17 8 17 17 0 6 -10 9 -30
7 -45z m-668 -13 c12 -16 20 -33 16 -36 -10 -11 -56 27 -56 47 0 29 15 25 40
-11z m1483 5 c-21 -16 -53 -18 -53 -4 0 6 9 10 19 10 11 0 23 5 26 10 4 6 11
8 16 4 6 -3 3 -12 -8 -20z m85 14 c17 -17 15 -38 -3 -38 -16 0 -38 34 -28 44
9 9 18 7 31 -6z m-210 -32 c3 -12 -1 -17 -10 -14 -7 3 -15 13 -16 22 -3 12 1
17 10 14 7 -3 15 -13 16 -22z m52 4 c0 -5 -7 -10 -15 -10 -8 0 -15 5 -15 10 0
6 7 10 15 10 8 0 15 -4 15 -10z m108 -12 c17 -17 15 -28 -7 -28 -22 0 -35 15
-26 30 8 13 18 13 33 -2z m-852 -48 l6 -35 -22 21 c-16 16 -20 28 -15 44 9 28
23 15 31 -30z m975 20 c21 -1 -20 -30 -42 -30 -20 0 -33 41 -16 52 6 4 19 0
28 -8 8 -7 22 -14 30 -14z m-181 11 c0 -5 3 -16 6 -25 5 -12 0 -16 -20 -16
-30 0 -46 27 -25 41 18 11 39 11 39 0z m-125 -39 c-8 -9 -25 20 -18 31 3 5 10
2 15 -7 6 -10 7 -20 3 -24z m55 12 c0 -16 -16 -19 -25 -4 -8 13 4 32 16 25 5
-4 9 -13 9 -21z m-1381 -3 c13 -10 22 -24 20 -30 -5 -14 -59 23 -59 40 0 14
12 11 39 -10z m1546 -1 c5 -9 -50 -40 -70 -40 -15 0 -1 21 23 34 33 18 39 19
47 6z m-907 -59 c2 -12 1 -30 -3 -39 -5 -14 -7 -14 -15 -2 -15 23 -12 72 3 68
6 -3 13 -15 15 -27z m-633 -1 c27 -30 11 -35 -21 -6 -21 18 -24 25 -13 26 9 0
24 -9 34 -20z m20 -61 c10 -15 -1 -22 -24 -14 -12 3 -21 15 -21 26 0 16 3 18
19 9 11 -5 23 -15 26 -21z m575 -40 c0 -17 -4 -28 -10 -24 -5 3 -10 17 -10 31
0 13 5 24 10 24 6 0 10 -14 10 -31z m-555 -19 c17 -19 17 -20 1 -20 -23 0 -56
18 -56 30 0 17 36 11 55 -10z m527 -82 c-14 -14 -28 34 -17 59 6 15 10 12 18
-15 7 -23 7 -36 -1 -44z m-502 27 c7 -9 11 -17 8 -20 -8 -8 -62 11 -66 23 -6
18 43 15 58 -3z m476 -92 c-6 -15 -8 -15 -16 -3 -12 18 -13 64 -2 74 10 11 26
-49 18 -71z m-476 42 c26 -13 41 -35 25 -35 -14 0 -65 32 -65 40 0 13 6 13 40
-5z m43 -73 c9 -8 15 -17 13 -19 -6 -6 -63 25 -72 38 -9 16 36 1 59 -19z m393
-28 c-3 -8 -12 -14 -20 -14 -16 0 -11 35 8 59 9 12 12 10 14 -8 2 -12 1 -29
-2 -37z m-402 -5 c28 -13 47 -45 20 -35 -8 3 -20 6 -24 6 -5 0 -14 9 -20 20
-12 23 -10 24 24 9z m341 -55 c-23 -36 -30 -23 -9 18 10 18 19 27 22 20 2 -7
-4 -24 -13 -38z m-300 -6 c31 -14 32 -28 2 -28 -23 0 -47 17 -47 32 0 11 15
10 45 -4z m255 -17 c0 -6 -5 -13 -10 -16 -15 -9 -43 3 -35 15 8 13 45 13 45 1z
m-172 -38 c2 -9 -7 -13 -27 -13 -32 0 -50 15 -29 24 21 8 51 2 56 -11z m116
11 c22 -9 10 -24 -20 -24 -23 0 -31 10 -17 23 8 9 17 9 37 1z m-48 -39 c18
-13 17 -14 -18 -15 -36 0 -54 10 -41 24 11 11 38 7 59 -9z"/>
<path d="M1498 2504 c-26 -14 -28 -19 -28 -77 l0 -62 -26 45 c-43 75 -61 90
-113 89 -62 0 -190 -24 -203 -37 -16 -16 -2 -42 22 -42 16 0 20 -7 20 -37 1
-21 7 -68 14 -105 12 -66 12 -66 -11 -77 -19 -9 -23 -16 -18 -34 12 -37 20
-39 86 -26 76 14 91 24 87 58 -2 20 -9 27 -29 29 -20 2 -28 10 -32 30 -7 35
-1 42 29 42 22 0 25 4 22 28 -2 22 -8 28 -35 30 -30 3 -33 6 -33 38 0 33 1 34
40 34 31 0 40 -4 41 -17 0 -10 6 -70 12 -133 l12 -115 30 0 c29 0 30 2 35 53
l5 52 35 -47 c40 -53 48 -58 72 -39 14 10 19 36 24 138 7 132 1 198 -19 198
-7 -1 -24 -8 -39 -16z m35 -26 c5 -15 -2 -223 -9 -255 -2 -13 -8 -23 -12 -23
-4 0 -30 31 -57 70 -28 38 -54 70 -59 70 -4 0 -5 -36 -1 -80 6 -68 5 -80 -8
-80 -14 0 -21 52 -31 255 -1 12 -116 19 -126 8 -4 -4 -5 -30 -1 -58 6 -49 6
-50 39 -47 18 2 32 -1 32 -7 0 -6 -13 -11 -30 -11 -33 0 -36 -9 -23 -83 5 -34
9 -38 32 -35 17 2 26 -2 26 -11 0 -16 -112 -43 -121 -29 -8 12 5 28 23 28 12
0 14 7 10 33 -4 17 -11 70 -17 117 -12 91 -14 96 -45 102 -27 7 -8 13 83 27
131 20 125 22 187 -74 30 -47 59 -85 63 -85 4 0 9 37 11 82 1 45 5 86 7 90 8
12 22 10 27 -4z"/>
<path d="M1722 1965 c-69 -30 -179 -110 -243 -177 l-66 -70 -22 28 c-21 27
-22 39 -5 95 2 9 -5 27 -17 40 -18 21 -20 21 -14 4 4 -11 7 -22 8 -25 0 -3 -3
-24 -7 -47 -5 -25 -3 -49 3 -62 9 -16 8 -21 -9 -26 -26 -8 -53 9 -146 95 -92
85 -144 108 -208 90 -45 -12 -96 -54 -82 -67 4 -4 10 -3 14 3 14 22 52 34 109
34 72 -1 139 -40 136 -81 -5 -65 -2 -278 5 -309 9 -40 45 -64 74 -49 27 15 51
110 46 189 -3 62 -2 66 14 57 13 -8 26 -7 52 6 21 10 38 12 41 7 9 -15 23 -12
44 9 18 18 19 17 25 -63 9 -99 21 -147 44 -176 24 -29 55 -20 72 21 17 41 7
228 -16 293 l-17 50 32 27 c18 15 61 41 96 59 50 26 73 31 109 29 51 -5 54 -2
29 17 -23 17 -60 17 -101 -1z m-157 -251 c25 -129 16 -234 -19 -234 -25 0 -36
34 -46 142 -10 104 -4 154 21 185 17 20 26 2 44 -93z m-294 -18 c7 -24 8 -69
4 -109 -11 -114 -33 -151 -65 -112 -15 18 -26 223 -16 280 l7 37 30 -28 c16
-15 34 -46 40 -68z"/>
<path d="M1336 1435 c-25 -20 -46 -43 -46 -51 0 -11 16 -2 46 25 26 23 52 41
58 41 6 0 29 -11 51 -25 41 -25 71 -33 60 -15 -7 11 -99 60 -113 60 -5 0 -30
-16 -56 -35z"/>
<path d="M1714 1453 l30 -16 -50 -47 c-55 -52 -125 -83 -244 -107 -67 -13 -85
-13 -164 1 -81 13 -216 67 -216 85 0 3 9 12 21 19 12 7 19 16 16 18 -6 6 -67
-24 -67 -32 0 -3 33 -37 73 -75 92 -88 155 -119 257 -126 90 -7 149 9 243 65
47 29 63 45 78 80 11 25 33 60 49 79 17 18 30 38 30 43 0 13 -35 30 -62 30
-22 -1 -21 -2 6 -17z m-69 -150 c-16 -15 -29 -30 -27 -35 1 -5 -28 -23 -65
-40 -60 -28 -79 -32 -158 -32 -77 0 -98 3 -145 25 -55 26 -120 82 -75 65 41
-15 151 -36 195 -36 65 0 174 25 233 54 67 32 80 32 42 -1z"/>
<path d="M170 963 c0 -29 100 -143 125 -143 6 1 2 5 -8 11 -9 5 -40 40 -67 76
-28 36 -50 61 -50 56z"/>
</g>
</svg>
